<?xml version="1.0" standalone="no"?>
<!DOCTYPE svg PUBLIC "-//W3C//DTD SVG 20010904//EN"
 "http://www.w3.org/TR/2001/REC-SVG-20010904/DTD/svg10.dtd">
<svg version="1.0" xmlns="http://www.w3.org/2000/svg"
 width="325.000000pt" height="325.000000pt" viewBox="0 0 325.000000 325.000000"
 preserveAspectRatio="xMidYMid meet">
<metadata>
Created by potrace 1.14, written by Peter Selinger 2001-2017
</metadata>
<g transform="translate(0.000000,325.000000) scale(0.100000,-0.100000)"
fill="#000000" stroke="none">
<path d="M2490 2106 c-6 -6 -10 -14 -10 -19 0 -8 -171 -509 -187 -547 -3 -8
-7 -19 -8 -25 -2 -5 -30 -88 -64 -184 -33 -96 -61 -180 -61 -186 0 -7 6 -15
13 -17 13 -5 117 -2 121 4 2 1 19 50 39 108 19 58 68 197 107 310 39 113 95
275 125 360 29 85 56 162 60 171 3 10 1 21 -7 25 -18 12 -116 12 -128 0z"/>
<path d="M825 1992 c-3 -7 -5 -121 -5 -253 l0 -240 77 3 78 3 -1 87 c0 48 3
85 7 83 6 -4 47 -71 114 -183 60 -101 89 -142 101 -143 8 -1 20 -2 27 -3 28
-5 48 20 132 161 48 81 95 157 102 168 14 19 14 18 13 -10 -1 -16 -2 -114 -1
-216 l1 -186 158 1 157 1 3 68 3 67 -76 0 -75 0 0 235 0 234 38 -1 c20 0 54 0
75 1 l37 1 0 65 c0 36 -3 65 -7 66 -5 1 -72 2 -150 3 l-142 2 -126 -215 c-69
-119 -129 -222 -134 -230 -6 -10 -46 48 -142 210 -73 123 -133 226 -135 227
-1 2 -30 5 -63 6 -44 1 -62 -2 -66 -12z"/>
<path d="M1890 1927 l0 -72 49 -27 c39 -22 54 -38 76 -83 24 -48 27 -64 23
-123 -7 -99 -47 -162 -120 -193 -27 -11 -28 -14 -28 -85 l0 -73 53 16 c64 19
81 28 130 65 84 67 128 165 128 292 0 159 -103 295 -258 340 l-53 15 0 -72z"/>
<path d="M332 1747 l-233 -91 3 -64 3 -65 225 -88 c124 -48 232 -88 241 -88
21 -1 25 12 24 73 l0 48 -152 57 c-84 31 -154 59 -157 62 -3 3 43 23 102 44
59 21 130 49 157 61 l50 21 0 54 c0 47 -8 70 -25 68 -3 0 -110 -41 -238 -92z"/>
<path d="M2657 1833 c-4 -3 -7 -32 -7 -63 l0 -57 159 -59 c88 -32 158 -60 156
-62 -5 -6 -240 -93 -277 -104 l-38 -10 0 -60 c0 -66 11 -77 57 -60 122 45 420
165 429 173 11 9 13 114 1 125 -6 6 -458 184 -468 184 -3 0 -9 -3 -12 -7z"/>
<path d="M820 1335 c0 -36 3 -65 8 -66 41 -6 135 -3 139 5 3 5 7 35 7 67 l2
59 -78 0 -78 0 0 -65z"/>
</g>
</svg>
